<mxfile host="app.diagrams.net" agent="Mozilla/5.0 (Windows NT 10.0; Win64; x64) AppleWebKit/537.36 (KHTML, like Gecko) Chrome/130.0.0.0 Safari/537.36 Edg/130.0.0.0" version="24.8.3">
  <diagram id="R2lEEEUBdFMjLlhIrx00" name="Page-1">
    <mxGraphModel dx="2564" dy="1078" grid="1" gridSize="10" guides="1" tooltips="1" connect="1" arrows="1" fold="1" page="1" pageScale="1" pageWidth="850" pageHeight="1100" math="0" shadow="0" extFonts="Permanent Marker^https://fonts.googleapis.com/css?family=Permanent+Marker">
      <root>
        <mxCell id="0" />
        <mxCell id="1" parent="0" />
        <mxCell id="UnW5PZvMlPtwkMtMU96M-33" value="Conta_PF" style="swimlane;childLayout=stackLayout;horizontal=1;startSize=50;horizontalStack=0;rounded=1;fontSize=14;fontStyle=0;strokeWidth=2;resizeParent=0;resizeLast=1;shadow=0;dashed=0;align=center;arcSize=4;whiteSpace=wrap;html=1;" vertex="1" parent="1">
          <mxGeometry x="563" y="310" width="160" height="90" as="geometry" />
        </mxCell>
        <mxCell id="UnW5PZvMlPtwkMtMU96M-34" value="&lt;font&gt;+ CPF&lt;/font&gt;&lt;div&gt;&lt;br&gt;&lt;/div&gt;" style="align=left;strokeColor=none;fillColor=none;spacingLeft=4;fontSize=12;verticalAlign=top;resizable=0;rotatable=0;part=1;html=1;" vertex="1" parent="UnW5PZvMlPtwkMtMU96M-33">
          <mxGeometry y="50" width="160" height="40" as="geometry" />
        </mxCell>
        <mxCell id="UnW5PZvMlPtwkMtMU96M-35" value="Pagamento" style="swimlane;childLayout=stackLayout;horizontal=1;startSize=50;horizontalStack=0;rounded=1;fontSize=14;fontStyle=0;strokeWidth=2;resizeParent=0;resizeLast=1;shadow=0;dashed=0;align=center;arcSize=4;whiteSpace=wrap;html=1;" vertex="1" parent="1">
          <mxGeometry x="560" y="850" width="160" height="120" as="geometry" />
        </mxCell>
        <mxCell id="UnW5PZvMlPtwkMtMU96M-36" value="&lt;font&gt;&lt;font&gt;+ Crédito&lt;/font&gt;&lt;br&gt;&lt;font&gt;+ Débito&lt;/font&gt;&lt;br&gt;&lt;font&gt;+ A Vista&lt;/font&gt;&lt;/font&gt;&lt;div&gt;&lt;font&gt;&lt;font&gt;+&amp;nbsp;&lt;/font&gt;&lt;/font&gt;&lt;span style=&quot;background-color: initial;&quot;&gt;Faturado&lt;/span&gt;&lt;/div&gt;" style="align=left;strokeColor=none;fillColor=none;spacingLeft=4;fontSize=12;verticalAlign=top;resizable=0;rotatable=0;part=1;html=1;" vertex="1" parent="UnW5PZvMlPtwkMtMU96M-35">
          <mxGeometry y="50" width="160" height="70" as="geometry" />
        </mxCell>
        <mxCell id="UnW5PZvMlPtwkMtMU96M-37" value="Conta_PJ" style="swimlane;childLayout=stackLayout;horizontal=1;startSize=50;horizontalStack=0;rounded=1;fontSize=14;fontStyle=0;strokeWidth=2;resizeParent=0;resizeLast=1;shadow=0;dashed=0;align=center;arcSize=4;whiteSpace=wrap;html=1;" vertex="1" parent="1">
          <mxGeometry x="180" y="310" width="160" height="90" as="geometry" />
        </mxCell>
        <mxCell id="UnW5PZvMlPtwkMtMU96M-38" value="&lt;font&gt;+ CNPJ&lt;/font&gt;" style="align=left;strokeColor=none;fillColor=none;spacingLeft=4;fontSize=12;verticalAlign=top;resizable=0;rotatable=0;part=1;html=1;" vertex="1" parent="UnW5PZvMlPtwkMtMU96M-37">
          <mxGeometry y="50" width="160" height="40" as="geometry" />
        </mxCell>
        <mxCell id="UnW5PZvMlPtwkMtMU96M-94" style="edgeStyle=orthogonalEdgeStyle;rounded=0;orthogonalLoop=1;jettySize=auto;html=1;exitX=0.5;exitY=1;exitDx=0;exitDy=0;entryX=0.5;entryY=0;entryDx=0;entryDy=0;" edge="1" parent="1" source="UnW5PZvMlPtwkMtMU96M-41" target="UnW5PZvMlPtwkMtMU96M-35">
          <mxGeometry relative="1" as="geometry" />
        </mxCell>
        <mxCell id="UnW5PZvMlPtwkMtMU96M-41" value="Gera" style="shape=rhombus;html=1;dashed=0;whiteSpace=wrap;perimeter=rhombusPerimeter;" vertex="1" parent="1">
          <mxGeometry x="610" y="730" width="60" height="50" as="geometry" />
        </mxCell>
        <mxCell id="UnW5PZvMlPtwkMtMU96M-46" value="Pedido" style="swimlane;childLayout=stackLayout;horizontal=1;startSize=50;horizontalStack=0;rounded=1;fontSize=14;fontStyle=0;strokeWidth=2;resizeParent=0;resizeLast=1;shadow=0;dashed=0;align=center;arcSize=4;whiteSpace=wrap;html=1;" vertex="1" parent="1">
          <mxGeometry x="370" y="560" width="160" height="120" as="geometry" />
        </mxCell>
        <mxCell id="UnW5PZvMlPtwkMtMU96M-47" value="&lt;div&gt;&lt;font&gt;+ ID_Pedido&lt;/font&gt;&lt;/div&gt;&lt;font&gt;+ Número Pedido&lt;/font&gt;&lt;br&gt;&lt;font&gt;+ Valor&lt;/font&gt;&lt;br&gt;&lt;font&gt;+ Quantidade&lt;/font&gt;" style="align=left;strokeColor=none;fillColor=none;spacingLeft=4;fontSize=12;verticalAlign=top;resizable=0;rotatable=0;part=1;html=1;" vertex="1" parent="UnW5PZvMlPtwkMtMU96M-46">
          <mxGeometry y="50" width="160" height="70" as="geometry" />
        </mxCell>
        <mxCell id="UnW5PZvMlPtwkMtMU96M-107" style="edgeStyle=orthogonalEdgeStyle;rounded=0;orthogonalLoop=1;jettySize=auto;html=1;exitX=1;exitY=0.5;exitDx=0;exitDy=0;entryX=0.5;entryY=0;entryDx=0;entryDy=0;" edge="1" parent="1" source="UnW5PZvMlPtwkMtMU96M-50" target="UnW5PZvMlPtwkMtMU96M-51">
          <mxGeometry relative="1" as="geometry">
            <Array as="points">
              <mxPoint x="760" y="1015" />
              <mxPoint x="760" y="80" />
              <mxPoint x="450" y="80" />
            </Array>
          </mxGeometry>
        </mxCell>
        <mxCell id="UnW5PZvMlPtwkMtMU96M-50" value="Acompanha" style="shape=rhombus;html=1;dashed=0;whiteSpace=wrap;perimeter=rhombusPerimeter;" vertex="1" parent="1">
          <mxGeometry x="470" y="990" width="90" height="50" as="geometry" />
        </mxCell>
        <mxCell id="UnW5PZvMlPtwkMtMU96M-48" value="Entrega" style="swimlane;childLayout=stackLayout;horizontal=1;startSize=50;horizontalStack=0;rounded=1;fontSize=14;fontStyle=0;strokeWidth=2;resizeParent=0;resizeLast=1;shadow=0;dashed=0;align=center;arcSize=4;whiteSpace=wrap;html=1;" vertex="1" parent="1">
          <mxGeometry x="50" y="750" width="207.06" height="120" as="geometry" />
        </mxCell>
        <mxCell id="UnW5PZvMlPtwkMtMU96M-49" value="&lt;font&gt;+ Status&lt;/font&gt;&lt;div&gt;&lt;font&gt;+ Rastreio&lt;/font&gt;&lt;/div&gt;&lt;div&gt;&lt;font&gt;&lt;br&gt;&lt;/font&gt;&lt;/div&gt;" style="align=left;strokeColor=none;fillColor=none;spacingLeft=4;fontSize=12;verticalAlign=top;resizable=0;rotatable=0;part=1;html=1;" vertex="1" parent="UnW5PZvMlPtwkMtMU96M-48">
          <mxGeometry y="50" width="207.06" height="70" as="geometry" />
        </mxCell>
        <mxCell id="UnW5PZvMlPtwkMtMU96M-51" value="Cliente" style="swimlane;fontStyle=1;align=center;verticalAlign=top;childLayout=stackLayout;horizontal=1;startSize=26;horizontalStack=0;resizeParent=1;resizeParentMax=0;resizeLast=0;collapsible=1;marginBottom=0;whiteSpace=wrap;html=1;" vertex="1" parent="1">
          <mxGeometry x="350" y="140" width="200" height="134" as="geometry">
            <mxRectangle x="50" y="310" width="80" height="30" as="alternateBounds" />
          </mxGeometry>
        </mxCell>
        <mxCell id="UnW5PZvMlPtwkMtMU96M-52" value="&lt;div&gt;&lt;font&gt;+ ID_conta&lt;/font&gt;&lt;/div&gt;&lt;font&gt;+ Nome&lt;/font&gt;&lt;div&gt;+ Endereço&lt;/div&gt;&lt;div&gt;+ Telefone&lt;/div&gt;" style="text;strokeColor=none;fillColor=none;align=left;verticalAlign=top;spacingLeft=4;spacingRight=4;overflow=hidden;rotatable=0;points=[[0,0.5],[1,0.5]];portConstraint=eastwest;whiteSpace=wrap;html=1;" vertex="1" parent="UnW5PZvMlPtwkMtMU96M-51">
          <mxGeometry y="26" width="200" height="74" as="geometry" />
        </mxCell>
        <mxCell id="UnW5PZvMlPtwkMtMU96M-53" value="" style="line;strokeWidth=1;fillColor=none;align=left;verticalAlign=middle;spacingTop=-1;spacingLeft=3;spacingRight=3;rotatable=0;labelPosition=right;points=[];portConstraint=eastwest;strokeColor=inherit;" vertex="1" parent="UnW5PZvMlPtwkMtMU96M-51">
          <mxGeometry y="100" width="200" height="8" as="geometry" />
        </mxCell>
        <mxCell id="UnW5PZvMlPtwkMtMU96M-54" value="+ method(type): type" style="text;strokeColor=none;fillColor=none;align=left;verticalAlign=top;spacingLeft=4;spacingRight=4;overflow=hidden;rotatable=0;points=[[0,0.5],[1,0.5]];portConstraint=eastwest;whiteSpace=wrap;html=1;" vertex="1" parent="UnW5PZvMlPtwkMtMU96M-51">
          <mxGeometry y="108" width="200" height="26" as="geometry" />
        </mxCell>
        <mxCell id="UnW5PZvMlPtwkMtMU96M-93" style="edgeStyle=orthogonalEdgeStyle;rounded=0;orthogonalLoop=1;jettySize=auto;html=1;exitX=0.5;exitY=1;exitDx=0;exitDy=0;entryX=0.5;entryY=0;entryDx=0;entryDy=0;" edge="1" parent="1" source="UnW5PZvMlPtwkMtMU96M-64" target="UnW5PZvMlPtwkMtMU96M-46">
          <mxGeometry relative="1" as="geometry" />
        </mxCell>
        <mxCell id="UnW5PZvMlPtwkMtMU96M-64" value="Faz" style="rhombus;whiteSpace=wrap;html=1;" vertex="1" parent="1">
          <mxGeometry x="410" y="430" width="80" height="80" as="geometry" />
        </mxCell>
        <mxCell id="UnW5PZvMlPtwkMtMU96M-84" style="edgeStyle=orthogonalEdgeStyle;rounded=0;orthogonalLoop=1;jettySize=auto;html=1;exitX=0.5;exitY=1;exitDx=0;exitDy=0;entryX=0.5;entryY=0;entryDx=0;entryDy=0;" edge="1" parent="1" source="UnW5PZvMlPtwkMtMU96M-47" target="UnW5PZvMlPtwkMtMU96M-41">
          <mxGeometry relative="1" as="geometry">
            <Array as="points">
              <mxPoint x="450" y="720" />
              <mxPoint x="640" y="720" />
            </Array>
          </mxGeometry>
        </mxCell>
        <mxCell id="UnW5PZvMlPtwkMtMU96M-89" style="edgeStyle=orthogonalEdgeStyle;rounded=0;orthogonalLoop=1;jettySize=auto;html=1;exitX=0.5;exitY=1;exitDx=0;exitDy=0;entryX=0;entryY=0.5;entryDx=0;entryDy=0;" edge="1" parent="1" source="UnW5PZvMlPtwkMtMU96M-38" target="UnW5PZvMlPtwkMtMU96M-64">
          <mxGeometry relative="1" as="geometry" />
        </mxCell>
        <mxCell id="UnW5PZvMlPtwkMtMU96M-90" style="edgeStyle=orthogonalEdgeStyle;rounded=0;orthogonalLoop=1;jettySize=auto;html=1;exitX=0.5;exitY=1;exitDx=0;exitDy=0;entryX=1;entryY=0.5;entryDx=0;entryDy=0;" edge="1" parent="1" source="UnW5PZvMlPtwkMtMU96M-34" target="UnW5PZvMlPtwkMtMU96M-64">
          <mxGeometry relative="1" as="geometry" />
        </mxCell>
        <mxCell id="UnW5PZvMlPtwkMtMU96M-91" style="edgeStyle=orthogonalEdgeStyle;rounded=0;orthogonalLoop=1;jettySize=auto;html=1;exitX=0;exitY=0.5;exitDx=0;exitDy=0;entryX=0.623;entryY=0.01;entryDx=0;entryDy=0;entryPerimeter=0;" edge="1" parent="1" source="UnW5PZvMlPtwkMtMU96M-52" target="UnW5PZvMlPtwkMtMU96M-37">
          <mxGeometry relative="1" as="geometry" />
        </mxCell>
        <mxCell id="UnW5PZvMlPtwkMtMU96M-92" style="edgeStyle=orthogonalEdgeStyle;rounded=0;orthogonalLoop=1;jettySize=auto;html=1;exitX=1;exitY=0.5;exitDx=0;exitDy=0;entryX=0.5;entryY=0;entryDx=0;entryDy=0;" edge="1" parent="1" source="UnW5PZvMlPtwkMtMU96M-52" target="UnW5PZvMlPtwkMtMU96M-33">
          <mxGeometry relative="1" as="geometry" />
        </mxCell>
        <mxCell id="UnW5PZvMlPtwkMtMU96M-97" style="edgeStyle=orthogonalEdgeStyle;rounded=0;orthogonalLoop=1;jettySize=auto;html=1;exitX=0.5;exitY=1;exitDx=0;exitDy=0;entryX=0;entryY=0.5;entryDx=0;entryDy=0;" edge="1" parent="1" source="UnW5PZvMlPtwkMtMU96M-49" target="UnW5PZvMlPtwkMtMU96M-50">
          <mxGeometry relative="1" as="geometry" />
        </mxCell>
        <mxCell id="UnW5PZvMlPtwkMtMU96M-100" style="edgeStyle=orthogonalEdgeStyle;rounded=0;orthogonalLoop=1;jettySize=auto;html=1;exitX=0;exitY=0.25;exitDx=0;exitDy=0;entryX=0;entryY=0.25;entryDx=0;entryDy=0;" edge="1" parent="1" source="UnW5PZvMlPtwkMtMU96M-49" target="UnW5PZvMlPtwkMtMU96M-47">
          <mxGeometry relative="1" as="geometry" />
        </mxCell>
        <mxCell id="UnW5PZvMlPtwkMtMU96M-115" style="edgeStyle=orthogonalEdgeStyle;rounded=0;orthogonalLoop=1;jettySize=auto;html=1;entryX=0.5;entryY=0;entryDx=0;entryDy=0;" edge="1" parent="1" source="UnW5PZvMlPtwkMtMU96M-108" target="UnW5PZvMlPtwkMtMU96M-48">
          <mxGeometry relative="1" as="geometry">
            <Array as="points">
              <mxPoint x="378" y="720" />
              <mxPoint x="154" y="720" />
            </Array>
          </mxGeometry>
        </mxCell>
        <mxCell id="UnW5PZvMlPtwkMtMU96M-108" value="Resulta" style="html=1;whiteSpace=wrap;aspect=fixed;shape=isoRectangle;" vertex="1" parent="1">
          <mxGeometry x="320" y="900" width="116.67" height="70" as="geometry" />
        </mxCell>
        <mxCell id="UnW5PZvMlPtwkMtMU96M-109" style="edgeStyle=orthogonalEdgeStyle;rounded=0;orthogonalLoop=1;jettySize=auto;html=1;exitX=0;exitY=0.5;exitDx=0;exitDy=0;" edge="1" parent="1" source="UnW5PZvMlPtwkMtMU96M-36" target="UnW5PZvMlPtwkMtMU96M-108">
          <mxGeometry relative="1" as="geometry" />
        </mxCell>
      </root>
    </mxGraphModel>
  </diagram>
</mxfile>
